<svg width="23" height="23" viewBox="0 0 23 23" fill="none" xmlns="http://www.w3.org/2000/svg">
<path d="M20.4989 13.7251L20.3952 12.6886L20.3613 12.692L20.3276 12.6976L20.4989 13.7251ZM20.4989 13.7251L20.6025 14.7616L20.6365 14.7582L20.6701 14.7526L20.4989 13.7251ZM16.2898 19.4358L16.9495 18.6295L16.9405 18.6225L16.2898 19.4358ZM16.2898 19.4358L15.6301 20.242L15.6391 20.2492L16.2898 19.4358ZM6.71083 19.4363L6.0512 18.6301L6.0347 18.6436L6.01878 18.6577L6.71083 19.4363ZM6.71083 19.4363L7.37043 20.2425L7.38692 20.229L7.40286 20.2149L6.71083 19.4363ZM2.50194 9.2748V8.23313H2.44999L2.3983 8.23831L2.50194 9.2748ZM2.50194 9.2748L2.50195 10.3164H2.5539L2.6056 10.3113L2.50194 9.2748ZM14.762 2.39782C14.7407 2.1857 14.7203 1.97593 14.6905 1.79871C14.6591 1.61125 14.6074 1.39272 14.4925 1.16998L12.641 2.12496C12.6171 2.0786 12.6221 2.06119 12.636 2.14369C12.6516 2.23643 12.665 2.36547 12.689 2.60511L14.762 2.39782ZM14.8608 3.38685C14.9268 3.47322 14.9058 3.51143 14.8693 3.30824C14.8345 3.11502 14.8065 2.84283 14.762 2.39782L12.689 2.60511C12.73 3.01516 12.7662 3.38429 12.8189 3.67722C12.8698 3.96021 12.9596 4.32947 13.2045 4.65043L14.8608 3.38685ZM14.8608 3.38685L13.2045 4.65043C13.6585 5.24555 14.3968 5.55137 15.1387 5.45158L14.8608 3.38685ZM15.6301 2.75743C15.284 3.04064 15.0718 3.21331 14.9105 3.32536C14.7411 3.44317 14.7532 3.40133 14.8608 3.38685L15.1387 5.45158C15.5387 5.39775 15.8633 5.2002 16.0995 5.03611C16.3439 4.86624 16.6304 4.6308 16.9494 4.36985L15.6301 2.75743ZM16.6889 2.07977C16.4501 2.15604 16.2591 2.274 16.1043 2.38431C15.9579 2.48858 15.7951 2.62245 15.6301 2.75743L16.9494 4.36985C17.1357 4.21735 17.2366 4.13561 17.3131 4.08105C17.3813 4.0325 17.3725 4.04841 17.3228 4.06429L16.6889 2.07977ZM18.1512 2.1527C17.6887 1.95226 17.1691 1.92636 16.6889 2.07977L17.3228 4.06429L18.1512 2.1527ZM19.1372 2.93235C18.9865 2.78163 18.8378 2.63221 18.7026 2.5139C18.5595 2.38874 18.3812 2.25234 18.1512 2.1527L17.3228 4.06429C17.275 4.04355 17.2679 4.02685 17.3308 4.08193C17.4017 4.14385 17.4938 4.2352 17.6641 4.40548L19.1372 2.93235ZM20.0679 3.86305L19.1372 2.93235L17.6641 4.40548L18.5948 5.33618L20.0679 3.86305ZM20.8475 4.8491C20.7479 4.61915 20.6115 4.44075 20.4864 4.29768C20.368 4.16243 20.2187 4.01378 20.0679 3.86305L18.5948 5.33618C18.7651 5.50648 18.8564 5.5986 18.9184 5.66938C18.9735 5.73234 18.9567 5.72526 18.936 5.6774L20.8475 4.8491ZM20.9205 6.31137C21.0739 5.83119 21.048 5.31165 20.8475 4.8491L18.936 5.6774L20.9205 6.31137ZM20.2428 7.37011C20.3778 7.20513 20.5117 7.04235 20.616 6.89599C20.7263 6.74117 20.8442 6.55011 20.9205 6.31137L18.936 5.6774C18.9519 5.62771 18.9677 5.61899 18.9192 5.68713C18.8646 5.76371 18.7829 5.86446 18.6304 6.05086L20.2428 7.37011ZM19.6133 8.13941C19.5989 8.24708 19.5571 8.25927 19.6749 8.08974C19.7869 7.92851 19.9596 7.71625 20.2428 7.37011L18.6304 6.05086C18.3694 6.36982 18.134 6.65638 17.9641 6.90081C17.8 7.13692 17.6025 7.4616 17.5487 7.86167L19.6133 8.13941ZM19.6133 8.13941L17.5487 7.86167C17.4489 8.60347 17.7547 9.3418 18.3498 9.7958L19.6133 8.13941ZM20.6024 8.23832C20.1574 8.19381 19.8852 8.16582 19.692 8.13105C19.4888 8.09447 19.527 8.0735 19.6133 8.13941L18.3498 9.7958C18.6707 10.0406 19.04 10.1305 19.323 10.1814C19.616 10.2341 19.9851 10.2703 20.3951 10.3113L20.6024 8.23832ZM21.8303 8.50778C21.6076 8.39289 21.3891 8.3412 21.2016 8.30972C21.0244 8.27996 20.8146 8.25953 20.6024 8.23832L20.3951 10.3113C20.6348 10.3353 20.7639 10.3487 20.8566 10.3643C20.9391 10.3782 20.9217 10.3832 20.8753 10.3593L21.8303 8.50778ZM22.8127 9.5933C22.6274 9.12451 22.2783 8.73885 21.8303 8.50778L20.8753 10.3593L22.8127 9.5933ZM22.9587 10.8418C22.9587 10.6287 22.9592 10.418 22.9472 10.2386C22.9346 10.0489 22.9049 9.82632 22.8127 9.5933L20.8753 10.3593C20.8562 10.3108 20.8629 10.294 20.8686 10.3775C20.8748 10.4713 20.8753 10.601 20.8753 10.8418H22.9587ZM22.9587 12.1582V10.8418H20.8753V12.1582H22.9587ZM22.8128 13.4064C22.9049 13.1734 22.9346 12.9509 22.9472 12.7612C22.9592 12.582 22.9587 12.3713 22.9587 12.1582H20.8753C20.8753 12.3989 20.8748 12.5286 20.8686 12.6225C20.8629 12.7059 20.8562 12.6891 20.8753 12.6406L22.8128 13.4064ZM21.8301 14.4923C22.2783 14.2611 22.6274 13.8754 22.8128 13.4064L20.8753 12.6406L21.8301 14.4923ZM20.6025 14.7616C20.8146 14.7404 21.0244 14.72 21.2016 14.6902C21.389 14.6587 21.6074 14.607 21.8301 14.4923L20.8753 12.6406C20.9217 12.6167 20.9391 12.6218 20.8566 12.6356C20.7639 12.6512 20.6348 12.6646 20.3952 12.6886L20.6025 14.7616ZM19.6138 14.8605C19.5274 14.9263 19.4892 14.9054 19.6924 14.8688C19.8855 14.834 20.1576 14.8061 20.6025 14.7616L20.3952 12.6886C19.9853 12.7297 19.6163 12.7657 19.3235 12.8184C19.0405 12.8693 18.6714 12.9591 18.3505 13.2038L19.6138 14.8605ZM19.6138 14.8605L18.3505 13.2038C17.7551 13.6579 17.4491 14.3965 17.5491 15.1386L19.6138 14.8605ZM20.2429 15.6294C19.9599 15.2835 19.7873 15.0713 19.6752 14.9102C19.5574 14.7407 19.5993 14.7529 19.6138 14.8605L17.5491 15.1386C17.6029 15.5385 17.8004 15.8631 17.9645 16.0991C18.1343 16.3434 18.3697 16.6299 18.6305 16.9487L20.2429 15.6294ZM20.9204 16.6878C20.8442 16.4492 20.7263 16.2582 20.616 16.1034C20.5118 15.9572 20.3779 15.7944 20.2429 15.6294L18.6305 16.9487C18.783 17.1351 18.8647 17.2358 18.9193 17.3124C18.9678 17.3805 18.9519 17.3717 18.9361 17.322L20.9204 16.6878ZM20.8475 18.1506C21.048 17.6879 21.074 17.1682 20.9204 16.6878L18.9361 17.322L20.8475 18.1506ZM20.068 19.1363C20.2188 18.9856 20.3681 18.837 20.4864 18.7018C20.6115 18.5588 20.7478 18.3805 20.8475 18.1506L18.9361 17.322C18.9568 17.2742 18.9735 17.2672 18.9184 17.3301C18.8565 17.4008 18.7651 17.4929 18.5949 17.6632L20.068 19.1363ZM19.1372 20.0672L20.068 19.1363L18.5949 17.6632L17.6641 18.5939L19.1372 20.0672ZM18.1513 20.8467C18.3812 20.7472 18.5596 20.6107 18.7026 20.4856C18.8378 20.3673 18.9865 20.2179 19.1372 20.0672L17.6641 18.5939C17.4938 18.7641 17.4017 18.8556 17.331 18.9176C17.2679 18.9726 17.275 18.9559 17.3229 18.9352L18.1513 20.8467ZM16.6889 20.9196C17.1691 21.0731 17.6887 21.0471 18.1513 20.8467L17.3229 18.9352L16.6889 20.9196ZM15.6301 20.242C15.7951 20.377 15.9579 20.5109 16.1043 20.6152C16.2591 20.7255 16.4502 20.8434 16.6889 20.9196L17.3229 18.9352C17.3726 18.951 17.3813 18.9669 17.3131 18.9184C17.2366 18.8638 17.1358 18.782 16.9495 18.6295L15.6301 20.242ZM14.861 19.6127C14.7532 19.5982 14.7411 19.5563 14.9105 19.6741C15.0718 19.7861 15.284 19.9588 15.6301 20.242L16.9495 18.6295C16.6306 18.3685 16.344 18.1332 16.0995 17.9633C15.8635 17.7992 15.5388 17.6017 15.1387 17.5479L14.861 19.6127ZM14.861 19.6127L15.1387 17.5479C14.3969 17.4481 13.6586 17.7539 13.2045 18.349L14.861 19.6127ZM14.762 20.6018C14.8065 20.1567 14.8345 19.8845 14.8693 19.6912C14.9058 19.488 14.9268 19.5262 14.861 19.6127L13.2045 18.349C12.9597 18.67 12.8698 19.0393 12.8189 19.3223C12.7662 19.6153 12.73 19.9844 12.689 20.3945L14.762 20.6018ZM14.4924 21.8302C14.6074 21.6074 14.6591 21.3887 14.6905 21.2012C14.7203 21.0239 14.7407 20.814 14.762 20.6018L12.689 20.3945C12.665 20.6343 12.6516 20.7634 12.636 20.8562C12.6221 20.9387 12.617 20.9213 12.641 20.875L14.4924 21.8302ZM13.4072 22.8123C13.8758 22.6269 14.2614 22.278 14.4924 21.8302L12.641 20.875L13.4072 22.8123ZM12.1582 22.9583C12.3715 22.9583 12.5823 22.9588 12.7617 22.9468C12.9514 22.9341 13.1741 22.9044 13.4072 22.8123L12.641 20.875C12.6895 20.8558 12.7063 20.8626 12.6228 20.8682C12.529 20.8744 12.3992 20.875 12.1582 20.875V22.9583ZM10.8422 22.9583H12.1582V20.875H10.8422V22.9583ZM9.59366 22.8124C9.82668 22.9045 10.0493 22.9342 10.239 22.9468C10.4183 22.9588 10.6291 22.9583 10.8422 22.9583V20.875C10.6014 20.875 10.4717 20.8744 10.3778 20.8682C10.2944 20.8626 10.3112 20.8558 10.3597 20.875L9.59366 22.8124ZM8.50814 21.83C8.73921 22.278 9.12489 22.627 9.59366 22.8124L10.3597 20.875L8.50814 21.83ZM8.23868 20.6021C8.25989 20.8142 8.28033 21.024 8.31009 21.2012C8.34157 21.3887 8.39326 21.6073 8.50814 21.83L10.3597 20.875C10.3836 20.9213 10.3786 20.9387 10.3647 20.8562C10.3491 20.7635 10.3356 20.6344 10.3117 20.3948L8.23868 20.6021ZM8.13978 19.613C8.07387 19.5266 8.09484 19.4884 8.13141 19.6916C8.16618 19.8849 8.19417 20.157 8.23868 20.6021L10.3117 20.3948C10.2706 19.9848 10.2345 19.6156 10.1818 19.3227C10.1308 19.0396 10.041 18.6704 9.79616 18.3494L8.13978 19.613ZM8.13978 19.613L9.79616 18.3494C9.34215 17.7543 8.60386 17.4485 7.86208 17.5483L8.13978 19.613ZM7.37043 20.2425C7.7166 19.9592 7.92887 19.7865 8.09011 19.6745C8.25965 19.5567 8.24745 19.5985 8.13978 19.613L7.86208 17.5483C7.46199 17.602 7.1373 17.7997 6.90117 17.9637C6.65673 18.1336 6.37016 18.3691 6.0512 18.6301L7.37043 20.2425ZM6.31165 20.9202C6.5504 20.8439 6.74147 20.7259 6.8963 20.6156C7.04266 20.5113 7.20544 20.3775 7.37043 20.2425L6.0512 18.6301C5.8648 18.7826 5.76404 18.8643 5.68744 18.9189C5.61931 18.9675 5.62802 18.9515 5.67771 18.9357L6.31165 20.9202ZM4.84944 20.8473C5.31199 21.0477 5.83148 21.0736 6.31165 20.9202L5.67771 18.9357L4.84944 20.8473ZM3.86335 20.0676C4.01409 20.2183 4.16275 20.3677 4.29801 20.486C4.44109 20.6112 4.61947 20.7476 4.84944 20.8473L5.67771 18.9357C5.72558 18.9564 5.73266 18.9731 5.66969 18.918C5.59891 18.8561 5.50679 18.7648 5.33648 18.5944L3.86335 20.0676ZM2.93268 19.1369L3.86335 20.0676L5.33648 18.5944L4.40582 17.6637L2.93268 19.1369ZM2.15301 18.1508C2.25265 18.3808 2.38906 18.5591 2.51421 18.7023C2.63254 18.8375 2.78195 18.9862 2.93268 19.1369L4.40582 17.6637C4.23552 17.4935 4.14417 17.4013 4.08225 17.3306C4.02717 17.2676 4.04387 17.2747 4.06461 17.3226L2.15301 18.1508ZM2.08008 16.6886C1.92668 17.1688 1.95259 17.6883 2.15301 18.1508L4.06461 17.3226L2.08008 16.6886ZM2.75778 15.6299C2.62279 15.7948 2.4889 15.9576 2.38462 16.1039C2.27432 16.2587 2.15634 16.4499 2.08008 16.6886L4.06461 17.3226C4.04874 17.3723 4.03282 17.3809 4.08136 17.3128C4.13593 17.2362 4.21767 17.1355 4.37018 16.949L2.75778 15.6299ZM3.3872 14.8605C3.40168 14.7529 3.44354 14.7407 3.32571 14.9102C3.21366 15.0714 3.04099 15.2837 2.75778 15.6299L4.37018 16.949C4.63114 16.6301 4.8666 16.3435 5.03646 16.0991C5.20056 15.863 5.39812 15.5383 5.45194 15.1383L3.3872 14.8605ZM3.3872 14.8605L5.45194 15.1383C5.55172 14.3964 5.2459 13.6581 4.6508 13.2041L3.3872 14.8605ZM2.39817 14.7616C2.84319 14.8061 3.11537 14.8341 3.30861 14.8689C3.5118 14.9055 3.47358 14.9264 3.3872 14.8605L4.6508 13.2041C4.32984 12.9592 3.96058 12.8694 3.67759 12.8185C3.38464 12.7658 3.01552 12.7297 2.60546 12.6886L2.39817 14.7616ZM1.17036 14.4922C1.39309 14.607 1.61161 14.6587 1.79908 14.6902C1.9763 14.72 2.18607 14.7404 2.39817 14.7616L2.60546 12.6886C2.36583 12.6646 2.2368 12.6512 2.14406 12.6356C2.06156 12.6217 2.07896 12.6167 2.12533 12.6406L1.17036 14.4922ZM0.187923 13.4066C0.373277 13.8754 0.722319 14.2611 1.17036 14.4922L2.12533 12.6406L0.187923 13.4066ZM0.0419959 12.1581C0.0419959 12.3712 0.0414573 12.5819 0.0534334 12.7613C0.0661 12.951 0.0957771 13.1735 0.187923 13.4066L2.12533 12.6406C2.14451 12.6891 2.1377 12.7059 2.13213 12.6225C2.12587 12.5286 2.12533 12.3989 2.12533 12.1581H0.0419959ZM0.0419959 10.8419V12.1581H2.12533V10.8419H0.0419959ZM0.188006 9.59309C0.0958083 9.82621 0.0661104 10.0489 0.0534334 10.2386C0.0414573 10.418 0.0419959 10.6288 0.0419959 10.8419H2.12533C2.12533 10.6011 2.12587 10.4713 2.13214 10.3775C2.13771 10.294 2.14452 10.3108 2.12533 10.3593L0.188006 9.59309ZM1.17017 8.50785C0.722288 8.73891 0.37335 9.12448 0.188006 9.59309L2.12533 10.3593L1.17017 8.50785ZM2.3983 8.23831C2.18613 8.25951 1.97631 8.27996 1.79905 8.30972C1.61154 8.34121 1.39295 8.39292 1.17017 8.50785L2.12533 10.3593C2.07895 10.3833 2.06155 10.3782 2.14406 10.3643C2.23683 10.3487 2.3659 10.3353 2.6056 10.3113L2.3983 8.23831ZM3.3876 8.13937C3.474 8.07345 3.51221 8.09443 3.30897 8.131C3.11569 8.1658 2.84344 8.19378 2.3983 8.23831L2.6056 10.3113C3.01577 10.2703 3.38499 10.2341 3.678 10.1814C3.96107 10.1305 4.33043 10.0405 4.65143 9.79559L3.3876 8.13937ZM3.3876 8.13937L4.65143 9.79559C5.2463 9.34164 5.55202 8.60355 5.45237 7.86193L3.3876 8.13937ZM2.75795 7.36982C3.04126 7.71607 3.21399 7.9284 3.32608 8.08969C3.44393 8.25928 3.40208 8.24709 3.3876 8.13937L5.45237 7.86193C5.3986 7.46173 5.20099 7.13695 5.03685 6.90078C4.86694 6.65628 4.63141 6.36962 4.37036 6.05057L2.75795 7.36982ZM2.08004 6.31061C2.1563 6.54945 2.27432 6.74061 2.38466 6.89548C2.48898 7.04191 2.62291 7.20475 2.75795 7.36982L4.37036 6.05057C4.21779 5.86409 4.13602 5.76329 4.08142 5.68666C4.03286 5.61849 4.04878 5.6272 4.06465 5.67692L2.08004 6.31061ZM2.15294 4.8489C1.95266 5.31129 1.92677 5.83059 2.08004 6.31061L4.06465 5.67692L2.15294 4.8489ZM2.93286 3.86244C2.78207 4.01323 2.6326 4.16194 2.51424 4.29724C2.38904 4.44038 2.25259 4.61884 2.15294 4.8489L4.06465 5.67692C4.04391 5.72481 4.0272 5.73189 4.08231 5.66891C4.14425 5.5981 4.23563 5.50594 4.406 5.33559L2.93286 3.86244ZM3.8634 2.9319L2.93286 3.86244L4.406 5.33559L5.33654 4.40505L3.8634 2.9319ZM4.8495 2.1522C4.61953 2.25184 4.44113 2.38825 4.29806 2.51342C4.1628 2.63174 4.01413 2.78116 3.8634 2.9319L5.33654 4.40505C5.50684 4.23474 5.59896 4.14338 5.66975 4.08146C5.73271 4.02638 5.72563 4.04308 5.67777 4.06382L4.8495 2.1522ZM6.3117 2.07928C5.83153 1.92589 5.31203 1.95181 4.8495 2.1522L5.67777 4.06382L6.3117 2.07928ZM7.37057 2.75706C7.20556 2.62204 7.04276 2.48814 6.89638 2.38385C6.74156 2.27355 6.55046 2.15555 6.3117 2.07928L5.67777 4.06382C5.62806 4.04794 5.61935 4.03203 5.68751 4.08059C5.76412 4.13517 5.8649 4.21693 6.05133 4.36946L7.37057 2.75706ZM8.13982 3.38643C8.24748 3.40093 8.25967 3.44276 8.09013 3.32494C7.92891 3.21289 7.71667 3.04022 7.37057 2.75706L6.05133 4.36946C6.37025 4.63039 6.65677 4.86582 6.90113 5.03566C7.13718 5.19971 7.46179 5.39726 7.86176 5.45113L8.13982 3.38643ZM8.13982 3.38643L7.86176 5.45113C8.60379 5.55106 9.34237 5.24513 9.79637 4.64978L8.13982 3.38643ZM8.23869 2.39767C8.1942 2.84257 8.16622 3.11467 8.13146 3.30786C8.09491 3.51099 8.07395 3.4728 8.13982 3.38643L9.79637 4.64978C10.0412 4.32888 10.131 3.95971 10.1819 3.6768C10.2346 3.38393 10.2707 3.01491 10.3117 2.60497L8.23869 2.39767ZM8.50803 1.17018C8.3932 1.39287 8.34154 1.61134 8.31008 1.79874C8.28033 1.97592 8.2599 2.18563 8.23869 2.39767L10.3117 2.60497C10.3356 2.3654 10.3491 2.2364 10.3647 2.14369C10.3785 2.06121 10.3836 2.07861 10.3597 2.12496L8.50803 1.17018ZM9.59387 0.187484C9.12493 0.372838 8.73912 0.721994 8.50803 1.17018L10.3597 2.12496L9.59387 0.187484ZM10.8421 0.0416296C10.629 0.0416296 10.4182 0.0410911 10.2391 0.0530567C10.0494 0.0657234 9.82689 0.0953901 9.59387 0.187484L10.3597 2.12496C10.3112 2.14413 10.2944 2.13734 10.3778 2.13177C10.4717 2.1255 10.6014 2.12496 10.8421 2.12496V0.0416296ZM12.1585 0.0416296H10.8421V2.12496H12.1585V0.0416296ZM13.407 0.187567C13.1739 0.0954109 12.9514 0.0657338 12.7617 0.0530672C12.5823 0.0410911 12.3716 0.0416296 12.1585 0.0416296V2.12496C12.3993 2.12496 12.529 2.1255 12.6228 2.13177C12.7063 2.13734 12.6895 2.14414 12.641 2.12496L13.407 0.187567ZM14.4925 1.16998C14.2615 0.721963 13.8757 0.372911 13.407 0.187567L12.641 2.12496L14.4925 1.16998ZM14.6253 11.5C14.6253 13.2259 13.2263 14.625 11.5003 14.625V16.7083C14.3768 16.7083 16.7087 14.3764 16.7087 11.5H14.6253ZM11.5003 8.37496C13.2263 8.37496 14.6253 9.77402 14.6253 11.5H16.7087C16.7087 8.62348 14.3768 6.29163 11.5003 6.29163V8.37496ZM8.37533 11.5C8.37533 9.77402 9.77439 8.37496 11.5003 8.37496V6.29163C8.62385 6.29163 6.292 8.62348 6.292 11.5H8.37533ZM11.5003 14.625C9.77439 14.625 8.37533 13.2259 8.37533 11.5H6.292C6.292 14.3764 8.62385 16.7083 11.5003 16.7083V14.625Z" fill="#1C2A34"/>
</svg>
